<?xml version="1.0" encoding="UTF-8"?>
<!-- Generator: Adobe Illustrator 19.2.0, SVG Export Plug-In . SVG Version: 6.00 Build 0)  -->
<svg id="Layer_1" enable-background="new 0 0 115.4 157.7" version="1.1" viewBox="0 0 115.4 157.7" xml:space="preserve" xmlns="http://www.w3.org/2000/svg">
<style type="text/css">
	.st0{display:none;opacity:3.000000e-02;}
	.st1{display:inline;fill:#3C4D63;}
	.st2{fill:#E9ECF4;}
	.st3{fill:#A2ABC0;}
	.st4{fill:#FEFEFE;stroke:#A2ABC0;stroke-miterlimit:10;}
	.st5{fill:#F3F4F8;}
</style>
<g class="st0">
	<path class="st1" d="m299.4 53.8c-22.9-65.2-97.1-48-106.5-45.9s-42 15.9-96.3-29.6-83.3-45.4-96.9-45.4c-29.9 0-75.5 38.6-86.6 47.1s-95 32.5-101.2 81 30.4 75 64.3 75.3 54.4-16.2 84.9-10.8c3.9 0.7 8.4 2 13.3 3.7v-21.9c0-1.6 1.3-2.9 2.9-2.9h95.8c1.7 0 3.2 1.3 3.2 2.9v55c3.7-0.3 7.1-1.2 9.9-2.7 26.6-14.1 32.3-28.7 65.8-12.9s65.4 18.4 86 14.6 84.3-42.4 61.4-107.5z"/>
</g>

	
		<ellipse class="st2" cx="57.7" cy="151.8" rx="42" ry="6"/>
	
	
		<rect class="st3" x="11.4" y="35.8" width="92.5" height="8.8"/>
	
	
		<rect class="st3" x="11.4" y="79.8" width="92.5" height="8.8"/>
	
	
		<rect class="st3" x="11.4" y="123.9" width="92.5" height="8.4"/>
	
	
		
			<rect class="st4" x=".4" y=".6" width="114.5" height="35.2"/>
		
		
			<rect class="st5" x="54.5" y="1.1" width="59.9" height="34.2"/>
		
		
			<rect class="st2" x="109.2" y="1.1" width="5.3" height="34.2"/>
		
		
			
				<circle class="st3" cx="97.3" cy="18.2" r="6.6"/>
			
			<rect class="st3" x="11.7" y="13.3" width="3" height="10"/>
			<rect class="st3" x="35.7" y="13.3" width="3" height="10"/>
			<rect class="st3" x="43.7" y="13.3" width="3" height="10"/>
			<rect class="st3" x="27.7" y="13.3" width="3" height="10"/>
			<rect class="st3" x="19.7" y="13.3" width="3" height="10"/>
			<rect class="st3" x="80.7" y="16.3" width="3" height="3"/>
			<rect class="st3" x="72.7" y="16.3" width="3" height="3"/>
			<rect class="st3" x="63.7" y="16.3" width="3" height="3"/>
		
	
	
		
			<rect class="st4" x=".4" y="44.6" width="114.5" height="35.2"/>
		
		
			<rect class="st5" x="54.5" y="45.1" width="59.9" height="34.2"/>
		
		
			<rect class="st2" x="109.2" y="45.1" width="5.3" height="34.2"/>
		
		
			
				<circle class="st3" cx="97.3" cy="62.1" r="6.6"/>
			
			<rect class="st3" x="11.7" y="57.4" width="3" height="10"/>
			<rect class="st3" x="35.7" y="57.4" width="3" height="10"/>
			<rect class="st3" x="43.7" y="57.4" width="3" height="10"/>
			<rect class="st3" x="27.7" y="57.4" width="3" height="10"/>
			<rect class="st3" x="19.7" y="57.4" width="3" height="10"/>
			<rect class="st3" x="80.7" y="60.4" width="3" height="3"/>
			<rect class="st3" x="72.7" y="60.4" width="3" height="3"/>
			<rect class="st3" x="63.7" y="60.4" width="3" height="3"/>
		
	
	
		
			<rect class="st4" x=".4" y="88.6" width="114.5" height="35.2"/>
		
		
			<rect class="st5" x="54.5" y="89.1" width="59.9" height="34.2"/>
		
		
			<rect class="st2" x="109.2" y="89.1" width="5.3" height="34.2"/>
		
		
			
				<circle class="st3" cx="97.3" cy="106.1" r="6.6"/>
			
			<rect class="st3" x="11.7" y="101.4" width="3" height="10"/>
			<rect class="st3" x="35.7" y="101.4" width="3" height="10"/>
			<rect class="st3" x="43.7" y="101.4" width="3" height="10"/>
			<rect class="st3" x="27.7" y="101.4" width="3" height="10"/>
			<rect class="st3" x="19.7" y="101.4" width="3" height="10"/>
			<rect class="st3" x="80.7" y="104.4" width="3" height="3"/>
			<rect class="st3" x="72.7" y="104.4" width="3" height="3"/>
			<rect class="st3" x="63.7" y="104.4" width="3" height="3"/>
		
	

</svg>
